<?xml version="1.0" ?><!DOCTYPE svg  PUBLIC '-//W3C//DTD SVG 1.1//EN'  'http://www.w3.org/Graphics/SVG/1.1/DTD/svg11.dtd'><svg height="512px" style="enable-background:new 0 0 512 512;" version="1.1" viewBox="0 0 512 512" width="512px" xml:space="preserve" xmlns="http://www.w3.org/2000/svg" xmlns:xlink="http://www.w3.org/1999/xlink"><g id="_x31_01_x2C__Mountains_x2C__Nature_x2C__Outdoor_x2C__Clouds_x2C__Sun"><g><path d="M363.212,67.601c-3.419,0-6.472,1.361-8.711,3.538    c-2.237,2.209-3.658,5.263-3.688,8.65c-0.031,1.844-1.453,3.387-3.237,3.599c-1.966,0.272-3.72,1.209-5.05,2.54    c-1.301,1.361-2.178,3.146-2.359,5.142c-0.182,2.026-1.996,3.538-4.021,3.356l-1.725-0.332l-1.149-0.061    c-2.358,0-4.507,0.938-6.019,2.48c-1.541,1.542-2.51,3.689-2.51,6.049c0,2.357,0.969,4.475,2.51,6.018    c1.542,1.543,3.66,2.51,6.019,2.51c8.74,0,16.725-0.423,24.738-0.847c8.499-0.453,17.058-0.907,25.949-0.907    c2.358,0,4.477-0.967,6.019-2.51l0.182-0.15c1.421-1.514,2.328-3.57,2.328-5.869c0-1.875-0.604-3.599-1.602-4.989    c-1.029-1.421-2.512-2.54-4.234-3.115c-1.088-0.394-1.936-1.239-2.299-2.269c-0.574-1.481-1.481-2.842-2.571-3.992l-0.151-0.15    c-1.058-1.089-2.357-1.996-3.811-2.602c-1.48-0.665-2.328-2.146-2.207-3.658l-0.03-0.061c0-3.418-1.392-6.502-3.629-8.74    C369.713,68.992,366.629,67.601,363.212,67.601 M164.121,101.141c0-2.057,1.664-3.721,3.72-3.721s3.72,1.664,3.72,3.721v7.711    c0,2.057-1.664,3.721-3.72,3.721s-3.72-1.664-3.72-3.721V101.141z M139.625,114.356c-1.421-1.452-1.421-3.811,0-5.263    c1.451-1.451,3.81-1.451,5.263,0l5.473,5.475c1.451,1.451,1.451,3.811,0,5.262c-1.451,1.453-3.811,1.453-5.262,0L139.625,114.356z     M131.671,141c-2.027,0-3.72-1.663-3.72-3.719c0-2.026,1.693-3.721,3.72-3.721h7.742c2.057,0,3.72,1.694,3.72,3.721    c0,2.056-1.664,3.719-3.72,3.719H131.671z M144.888,165.467c-1.421,1.453-3.782,1.453-5.233,0.031    c-1.451-1.452-1.451-3.812,0-5.232l5.443-5.475c1.451-1.451,3.811-1.481,5.262-0.029c1.451,1.451,1.451,3.78,0,5.231    L144.888,165.467z M171.562,173.451c0,2.057-1.664,3.721-3.72,3.721s-3.72-1.664-3.72-3.721v-7.742c0-2.057,1.664-3.72,3.72-3.72    s3.72,1.663,3.72,3.72V173.451z M196.028,160.235c1.451,1.451,1.451,3.811,0,5.263c-1.451,1.422-3.811,1.422-5.232-0.031    l-5.473-5.474c-1.453-1.451-1.453-3.811,0-5.231c1.451-1.452,3.81-1.422,5.262,0L196.028,160.235z M204.012,133.561    c2.026,0,3.72,1.664,3.72,3.721c0,2.056-1.693,3.719-3.72,3.719h-7.742c-2.057,0-3.72-1.663-3.72-3.719    c0-2.057,1.664-3.721,3.72-3.721H204.012z M190.795,109.094c1.421-1.451,3.811-1.451,5.232,0c1.451,1.452,1.451,3.811,0,5.263    l-5.475,5.474c-1.421,1.422-3.81,1.422-5.231,0c-1.453-1.451-1.453-3.811,0-5.262L190.795,109.094z M475.656,195.287    c1.814,0.968,2.449,3.236,1.48,5.021c-0.967,1.784-3.205,2.45-5.02,1.481c-0.03,0-13.882-7.047-16.938-0.938    c-0.907,1.846-3.114,2.57-4.959,1.664c-0.756-0.363-1.3-0.969-1.663-1.664c-3.055-6.109-16.876,0.938-16.905,0.938    c-1.814,0.969-4.054,0.303-5.052-1.481c-0.967-1.784-0.302-4.053,1.513-5.021c0.029-0.03,15.483-7.651,23.771-1.693    C460.141,187.636,475.625,195.257,475.656,195.287z M373.615,158.723c1.814,0.968,2.48,3.236,1.481,5.021    c-0.967,1.784-3.206,2.45-5.021,1.481c-0.029-0.029-13.85-7.046-16.905-0.937c-0.907,1.845-3.146,2.601-4.99,1.693    c-0.757-0.394-1.3-0.997-1.663-1.693c-3.056-6.109-16.876,0.907-16.906,0.937c-1.814,0.969-4.053,0.303-5.02-1.481    c-0.999-1.784-0.334-4.053,1.48-5.021c0.031-0.029,15.486-7.651,23.771-1.693C358.13,151.071,373.584,158.693,373.615,158.723z     M373.736,358.751c-2.057,0-3.72-1.663-3.72-3.72s1.663-3.721,3.72-3.721h37.138c2.057,0,3.721,1.664,3.721,3.721    s-1.664,3.72-3.721,3.72H373.736z M457.086,351.311c2.057,0,3.72,1.664,3.72,3.721s-1.663,3.72-3.72,3.72h-21.412    c-2.057,0-3.72-1.663-3.72-3.72s1.663-3.721,3.72-3.721H457.086z M322.201,393.318c-2.057,0-3.72-1.663-3.72-3.72    s1.663-3.72,3.72-3.72h37.14c2.057,0,3.72,1.663,3.72,3.72s-1.663,3.72-3.72,3.72H322.201z M405.552,385.879    c2.057,0,3.721,1.663,3.721,3.72s-1.664,3.72-3.721,3.72H391.61c-2.056,0-3.72-1.663-3.72-3.72s1.664-3.72,3.72-3.72H405.552z     M454.485,385.818c2.057,0,3.72,1.663,3.72,3.72s-1.663,3.72-3.72,3.72h-11.977c-2.057,0-3.72-1.663-3.72-3.72    s1.663-3.72,3.72-3.72H454.485z M344.461,427.222c-2.057,0-3.721-1.664-3.721-3.721c0-2.056,1.664-3.72,3.721-3.72H381.6    c2.057,0,3.721,1.664,3.721,3.72c0,2.057-1.664,3.721-3.721,3.721H344.461z M435.251,419.781c2.057,0,3.719,1.664,3.719,3.72    c0,2.057-1.662,3.721-3.719,3.721h-21.413c-2.057,0-3.72-1.664-3.72-3.721c0-2.056,1.663-3.72,3.72-3.72H435.251z     M356.406,224.835l34.176-26.554c1.572-1.21,3.811-0.998,5.08,0.484l90.337,92.725l-194.07-2.147L356.406,224.835z     M26.001,286.561l90.487-92.876c1.421-1.452,3.78-1.481,5.232-0.061l46.18,42.702l99.954-100.709l83.319,83.955l-69.649,69.649    l-57.824-0.665l-10.676-12.914c-1.3-1.604-3.629-1.814-5.201-0.514l-0.576,0.545l-10.253,12.883L26.001,286.561z M370.531,369.668    h36.17c2.057,0,3.721,1.664,3.721,3.721c0,2.026-1.664,3.689-3.721,3.689h-85.98c-3.6,0-6.867,1.481-9.255,3.871    c-2.358,2.359-3.841,5.655-3.841,9.254c0,3.6,1.482,6.896,3.841,9.255c2.388,2.389,5.655,3.841,9.255,3.841h47.754    c2.057,0,3.72,1.693,3.72,3.721c0,2.056-1.663,3.719-3.72,3.719h-23.471c-3.537,0.061-6.743,1.513-9.102,3.872    c-2.359,2.358-3.841,5.655-3.841,9.253c0,3.6,1.481,6.866,3.841,9.255c2.358,2.39,5.656,3.841,9.255,3.841h85.98    c2.057,0,3.721,1.664,3.721,3.721s-1.664,3.72-3.721,3.72h-85.98c-5.626,0-10.767-2.299-14.487-6.049    c-3.75-3.689-6.049-8.831-6.049-14.487c0-4.989,1.785-9.556,4.748-13.125h-8.648c-5.626,0-10.797-2.298-14.518-6.018    c-3.69-3.721-6.019-8.861-6.019-14.518c0-5.654,2.328-10.796,6.019-14.516c3.721-3.721,8.892-6.02,14.518-6.02h33.992    c-2.934-3.568-4.748-8.135-4.748-13.125c0-5.656,2.329-10.797,6.049-14.517c3.721-3.72,8.861-6.019,14.518-6.019h100.708    c2.057,0,3.721,1.664,3.721,3.721s-1.664,3.719-3.721,3.719H370.531c-3.6,0-6.896,1.482-9.255,3.842    c-2.39,2.389-3.871,5.654-3.871,9.254c0,3.599,1.481,6.895,3.871,9.254c2.329,2.359,5.534,3.811,9.071,3.871H370.531z     M214.233,353.761v17.632H203.71v-17.632h-31.483l18.872-20.444c0.695-0.695,1.149-1.633,1.149-2.691    c0-2.057-1.664-3.72-3.72-3.72h-2.299l13.215-14.306c0.727-0.695,1.149-1.633,1.149-2.691c0-2.057-1.664-3.72-3.72-3.72h-0.181    l6.654-8.045c0.665-0.695,1.058-1.603,1.058-2.631c0-1.089-0.484-2.087-1.241-2.782l7.047-8.861l7.168,8.68l-0.183,0.15    c-1.542,1.332-1.723,3.66-0.393,5.233l7.108,8.286c-0.877,0-1.755,0.303-2.45,0.967c-1.513,1.362-1.604,3.721-0.242,5.233    l13.397,14.486h-2.298c-0.907,0-1.785,0.333-2.511,0.997c-1.511,1.361-1.602,3.721-0.21,5.232l19.053,20.626H214.233z     M167.841,123.066c-3.932,0-7.5,1.572-10.07,4.144s-4.175,6.14-4.175,10.071c0,3.931,1.604,7.5,4.175,10.07l0.151,0.182    c2.571,2.48,6.078,3.992,9.919,3.992c3.931,0,7.5-1.603,10.071-4.174c2.57-2.57,4.174-6.14,4.174-10.07    c0-3.932-1.604-7.5-4.174-10.071l-0.151-0.151C175.19,124.578,171.683,123.066,167.841,123.066z" style="fill-rule:evenodd;clip-rule:evenodd;"/></g></g><g id="Layer_1"/></svg>